PathFileType  4	(X/Y/Z) C:\Users\antoi\Documents\MyRepositories\mobilecap\ResultsAnalysis
DataRate	CameraRate	NumFrames	NumMarkers	Units	OrigDataRate	OrigDataStartFrame	OrigNumFrames
100.0	100.0	6	51	mm	100.0	192	306
Frame#	Time	r_knee			r_shank_antsup			r_ankle			r_calc			r_5meta			r_toe			L_knee			L_shank_antsup			L_ankle			L_calc			L_5meta			L_toe			r_sh2			r_sh3			r_sh4			L_sh2			L_sh3			r_thigh1			r_thigh2			r_thigh3			r_thigh4			r_thigh5			L_thigh1			L_thigh2			L_thigh3			L_thigh4			r.ASIS			r.PSIS			L.ASIS			L.PSIS			C7			R_Shoulder			L_Shoulder			R_Sternum			L_Sternum			R_humerus			R_elbow_med			R_elbow_lat			R_forearm			R_wrist_radius			R_wrist_ulna			L_humerus			L_elbow_med			L_elbow_lat			L_forearm			L_wrist_radius			L_wrist_ulna			R_HJC			L_HJC			R_HJC_reg			L_HJC_reg			
		X1	Y1	Z1	X2	Y2	Z2	X3	Y3	Z3	X4	Y4	Z4	X5	Y5	Z5	X6	Y6	Z6	X7	Y7	Z7	X8	Y8	Z8	X9	Y9	Z9	X10	Y10	Z10	X11	Y11	Z11	X12	Y12	Z12	X13	Y13	Z13	X14	Y14	Z14	X15	Y15	Z15	X16	Y16	Z16	X17	Y17	Z17	X18	Y18	Z18	X19	Y19	Z19	X20	Y20	Z20	X21	Y21	Z21	X22	Y22	Z22	X23	Y23	Z23	X24	Y24	Z24	X25	Y25	Z25	X26	Y26	Z26	X27	Y27	Z27	X28	Y28	Z28	X29	Y29	Z29	X30	Y30	Z30	X31	Y31	Z31	X32	Y32	Z32	X33	Y33	Z33	X34	Y34	Z34	X35	Y35	Z35	X36	Y36	Z36	X37	Y37	Z37	X38	Y38	Z38	X39	Y39	Z39	X40	Y40	Z40	X41	Y41	Z41	X42	Y42	Z42	X43	Y43	Z43	X44	Y44	Z44	X45	Y45	Z45	X46	Y46	Z46	X47	Y47	Z47	X48	Y48	Z48	X49	Y49	Z49	X50	Y50	Z50	X51	Y51	Z51	

192	1.91000000	-52.52261	390.65411	-355.69932	-46.90248	274.88825	-371.09253	-254.40083	96.17877	-383.66241	-317.75988	57.57119	-430.50452	-164.92516	40.52506	-332.49620	-123.15240	53.74170	-373.03355	-66.25398	410.46634	-784.03600	-41.82008	291.57044	-755.41729	-264.25949	103.00771	-781.17123	-319.26062	62.49433	-733.86713	-172.70828	38.97608	-834.03121	-121.45504	51.15645	-788.27562	-118.54258	187.74758	-384.45674	-96.12169	305.46456	-322.91085	-176.90794	230.24910	-342.66770	-87.34327	348.26380	-809.88612	-161.58409	253.63008	-828.40276	-263.79147	600.92147	-362.77563	-168.07145	557.19295	-360.41960	-168.55729	501.72853	-319.31971	-311.55801	505.49436	-327.36674	-205.45850	459.31475	-321.66313	-282.83848	590.21606	-739.65093	-155.22526	544.58410	-751.98992	-335.60865	493.55766	-764.15718	-201.84849	447.54369	-781.44710	-261.50303	609.99099	-421.28938	-420.68535	707.95318	-488.73245	-263.73295	603.55091	-665.31426	-423.06587	709.22665	-602.56643	-147.36026	1060.08988	-557.17027	-96.80491	1007.68970	-406.98770	-82.76167	991.35098	-704.63867	-53.91592	953.45487	-532.62671	-52.56879	948.11488	-575.03187	-94.57836	900.49816	-331.96921	-170.03951	694.57264	-312.71302	-133.90876	725.73719	-252.34352	-37.06598	637.71370	-238.43027	36.18563	563.89411	-243.23497	14.44653	542.52915	-221.94967	-55.92058	865.56435	-766.97152	-66.34796	660.56089	-742.76761	-55.07780	685.65708	-813.86443	16.28790	619.43756	-842.47583	93.44221	512.44702	-850.35121	67.90970	494.07534	-861.57258	-370.07099	571.19998	-444.23327	-369.16953	562.76591	-633.42059	-351.95686	563.14253	-454.03841	-355.32491	564.94649	-615.11116	
193	1.92000000	-50.40817	388.30501	-357.64930	-45.23343	273.27564	-372.74032	-254.15263	95.67161	-384.08465	-317.59111	57.49757	-430.57220	-165.00627	40.66291	-332.46934	-123.15189	53.73639	-373.12329	-64.55125	407.86691	-781.96191	-42.54463	290.82869	-755.20293	-264.32963	102.45075	-780.47130	-319.29500	61.72691	-733.16511	-172.80678	39.09230	-833.84019	-121.57460	51.20021	-788.16209	-117.75425	186.75117	-385.84968	-94.15205	304.30104	-323.92999	-175.33956	229.68244	-343.20989	-86.62619	346.75644	-808.95309	-161.16358	252.39524	-827.51273	-261.71624	598.89420	-361.14627	-165.62103	554.09291	-359.72936	-165.99906	497.56787	-321.03833	-309.69586	502.83765	-327.80324	-203.58588	456.22642	-322.97394	-280.96475	587.83618	-739.41305	-153.07867	542.21879	-751.70407	-333.67071	490.82866	-763.43566	-200.00192	444.94468	-780.15990	-259.42611	609.57972	-420.59507	-419.29433	706.51301	-487.65637	-261.74145	602.54622	-664.30151	-422.11271	707.21479	-601.99243	-146.52204	1059.70244	-555.49802	-95.44251	1007.72069	-406.17010	-80.34368	992.67513	-702.28035	-53.25271	952.56161	-530.75840	-51.39759	948.09993	-573.13237	-85.58823	905.53287	-328.95146	-139.56933	693.35813	-306.39735	-107.28432	729.49229	-245.80274	0.73822	653.10958	-234.68970	81.62693	587.75467	-242.06612	63.19086	564.48340	-219.52816	-44.97254	871.83717	-765.33325	-36.49926	667.17380	-739.68196	-30.57364	692.60170	-811.15725	47.25542	632.98035	-840.63877	135.47648	534.69641	-847.70618	112.22267	513.16430	-857.34650	-367.73532	570.06282	-443.12480	-367.01681	561.12154	-632.28995	-349.39094	562.58635	-452.73756	-353.35672	563.57339	-613.60533	
194	1.93000000	-48.83635	386.89192	-358.99324	-44.01176	271.87812	-374.15063	-254.12900	95.33118	-384.40312	-317.60846	57.41240	-430.61143	-165.13270	40.84637	-332.32714	-123.21937	53.71682	-373.21421	-63.23561	405.79114	-780.51640	-42.64271	289.85348	-754.90232	-264.38072	101.99366	-780.16137	-319.28432	61.09816	-732.51833	-172.89754	39.19220	-833.69182	-121.61385	51.22711	-788.12261	-117.14185	185.73748	-387.14454	-92.54600	303.09933	-325.34551	-174.30983	229.09206	-344.05679	-85.99775	345.34877	-808.44481	-160.57755	251.14294	-825.86766	-259.62876	597.40628	-359.76392	-163.68361	552.39426	-359.23964	-163.71591	494.60992	-322.37030	-307.89026	500.93378	-328.24386	-201.71747	453.94297	-324.14501	-279.07083	586.51838	-738.96847	-151.10209	540.66929	-751.25987	-331.89066	489.31558	-762.63064	-198.14732	443.44371	-779.21159	-257.25038	609.79463	-419.78257	-417.83113	705.81475	-486.65508	-259.97973	602.12632	-663.94461	-421.05670	705.91809	-601.25753	-145.69394	1060.36728	-553.80014	-94.05906	1009.32379	-405.35517	-78.06294	995.41224	-699.34538	-52.66725	952.99151	-528.62261	-50.45912	949.01608	-571.19548	-76.52491	913.00691	-326.25206	-108.73407	697.01353	-299.66043	-80.15887	738.07482	-239.06771	37.63326	673.95724	-232.47449	124.89835	617.88214	-242.59305	110.05466	593.14122	-218.85841	-34.62556	880.42024	-763.20525	-8.20082	677.77341	-737.02772	-6.09570	703.23942	-808.59492	78.77136	651.69673	-838.50022	176.23463	562.41252	-844.24291	155.45199	538.27130	-852.96499	-365.33491	569.61536	-442.10080	-365.06816	560.18285	-631.24362	-347.03389	562.48832	-451.46069	-351.56996	562.63286	-612.63404	
195	1.94000000	-47.57226	386.23764	-359.98866	-43.19240	270.78712	-375.17716	-254.15117	95.09045	-384.86225	-317.71808	57.29118	-430.55868	-165.15283	40.87052	-332.31557	-123.29733	53.60019	-373.39932	-61.91342	404.78424	-779.99850	-41.81007	288.61400	-754.50079	-264.30097	101.81219	-779.84927	-319.08653	60.71601	-732.29420	-172.93843	39.26815	-833.62276	-121.60730	51.23721	-788.08718	-116.77021	184.80991	-388.15286	-91.40103	302.32459	-326.59663	-173.62619	228.68286	-344.78558	-85.03133	344.41384	-807.84659	-159.92018	250.16248	-823.93887	-257.43515	596.89857	-359.24236	-161.82461	551.90340	-359.18887	-161.72175	493.52490	-323.07754	-305.90177	500.27257	-328.48187	-199.82919	452.96436	-324.83038	-277.10540	586.35368	-738.31547	-149.51326	540.35016	-750.68636	-330.24875	489.36841	-761.91613	-196.46821	443.19541	-778.82444	-255.10241	610.20036	-419.17945	-416.27828	705.94104	-485.90662	-258.38760	602.49950	-663.97763	-419.87806	705.41269	-600.55139	-145.04580	1061.75602	-551.78931	-92.79147	1012.52270	-404.73469	-75.99261	999.71241	-695.83433	-51.94620	954.81773	-526.41992	-49.52327	950.73073	-569.18567	-67.42429	922.44232	-324.23360	-78.32342	705.61369	-292.82452	-52.86961	750.99127	-232.83068	72.54013	700.12465	-231.39957	164.83461	654.33333	-244.63834	154.12428	628.27058	-220.09671	-24.49418	891.19705	-760.32944	18.36299	691.84226	-735.27195	18.74783	717.76654	-806.80291	110.34980	675.44624	-835.57523	215.47030	595.52394	-839.40405	197.20189	569.55727	-848.63565	-363.08510	569.69208	-441.45207	-363.31529	560.10840	-630.58694	-344.95841	563.16874	-450.43530	-350.03149	562.42389	-612.01458	
196	1.95000000	-46.28011	385.88694	-361.20070	-42.50291	269.89655	-376.22142	-254.16852	94.90568	-385.32889	-317.80160	57.17289	-430.48545	-165.10127	40.70903	-332.45627	-123.36436	53.46963	-373.59358	-60.63516	404.51796	-779.55621	-40.83467	287.66408	-754.20630	-264.13516	101.89731	-779.19520	-318.83924	60.73096	-732.49605	-172.93439	39.34217	-833.55732	-121.58956	51.23064	-788.03364	-116.56840	184.02561	-389.01378	-90.51411	301.91208	-327.52478	-173.02519	228.47590	-345.27881	-83.87916	343.99433	-807.28351	-159.36131	249.83775	-822.82513	-254.95445	597.60055	-359.65197	-159.61665	552.30715	-359.92566	-159.44933	493.85494	-323.80765	-303.56123	501.03710	-328.43286	-197.71097	453.29912	-325.30256	-275.05765	587.23297	-737.49427	-148.22679	541.09163	-750.07655	-328.57360	490.68756	-761.28590	-194.97776	443.92057	-778.52630	-252.88051	611.19267	-418.85684	-414.47938	707.07706	-485.36329	-256.83076	603.68207	-664.15618	-418.48194	705.94139	-599.83646	-144.83041	1063.62595	-549.17735	-91.74451	1017.35920	-404.54421	-74.15401	1005.58351	-691.99779	-51.11896	957.92945	-524.03402	-48.46266	953.53843	-566.98574	-58.16190	933.78876	-322.91492	-48.83429	718.66904	-286.05113	-25.91351	767.61218	-227.94655	104.69178	731.33089	-231.32113	200.68121	696.97207	-248.40327	194.56321	669.75018	-223.33532	-14.64657	904.12442	-756.87271	42.76902	708.55782	-735.45849	43.53576	736.21334	-805.99434	140.62858	703.76734	-831.86569	252.38251	634.05549	-833.44440	236.82959	606.91249	-844.32270	-360.85150	570.61035	-441.01410	-361.65917	561.00907	-630.14615	-342.91410	564.78757	-449.64912	-348.57514	563.18089	-611.53573	
197	1.96000000	-44.76812	385.50876	-362.67967	-41.79044	269.22720	-377.45668	-254.16751	94.87549	-385.48668	-317.82670	57.16929	-430.45066	-165.12871	40.64598	-332.50585	-123.41020	53.48433	-373.57720	-59.35236	404.43029	-778.76194	-40.05049	287.07592	-753.87410	-263.97870	102.11077	-778.45254	-318.90180	61.12777	-732.63664	-172.90774	39.44301	-833.48611	-121.55946	51.22766	-787.98862	-116.26256	183.52279	-389.79302	-89.55256	301.56601	-328.42633	-172.34458	228.33694	-345.78802	-82.72701	343.77930	-806.75518	-158.83592	250.00134	-822.51535	-252.00608	599.29076	-360.53219	-156.76006	553.38908	-361.55730	-156.72711	495.30602	-324.59326	-300.83847	503.14133	-328.16769	-195.28504	454.78644	-325.68990	-272.80140	588.97214	-736.62443	-146.62165	542.35566	-749.28128	-326.77692	492.88003	-760.73196	-193.49119	445.30720	-778.10929	-250.55957	612.96729	-418.58574	-412.36981	709.19989	-484.78017	-255.04682	605.53829	-664.16322	-416.64975	707.81436	-598.95795	-144.64031	1066.55748	-546.58501	-90.73123	1023.88597	-404.84742	-72.54371	1012.89548	-687.85277	-50.12392	962.23717	-521.41334	-47.25731	957.53452	-564.45223	-49.00646	947.14658	-322.29677	-20.35363	735.75865	-279.41211	0.02103	787.96567	-224.01840	133.58842	767.25809	-232.45596	231.85901	745.27457	-254.16804	230.54377	717.45761	-228.61799	-5.48973	919.06360	-753.10377	65.50656	727.90002	-737.01473	67.14744	758.21804	-805.92631	168.24718	736.29909	-828.11563	285.86751	678.11279	-827.30056	273.41348	649.97676	-839.64734	-358.60689	572.50754	-440.53258	-359.94683	562.95074	-629.66456	-340.79745	566.94753	-449.10272	-346.87213	564.98172	-611.15998	
